<?xml version="1.0" encoding="UTF-8" standalone="no"?>
<!DOCTYPE svg PUBLIC "-//W3C//DTD SVG 1.1//EN" "http://www.w3.org/Graphics/SVG/1.1/DTD/svg11.dtd">
<svg width="100%" height="100%" viewBox="0 0 26 26" version="1.1" xmlns="http://www.w3.org/2000/svg" xmlns:xlink="http://www.w3.org/1999/xlink" xml:space="preserve" xmlns:serif="http://www.serif.com/" style="fill-rule:evenodd;clip-rule:evenodd;stroke-linecap:round;stroke-linejoin:round;">
    <g>
        <path d="M26,13C26,20.18 20.18,26 13,26C5.82,26 0,20.18 0,13C0,5.82 5.82,0 13,0C20.18,0 26,5.82 26,13Z" style="fill:rgb(244,238,219);"/>
        <path d="M13,19L13,13.75" style="fill:none;fill-rule:nonzero;stroke:rgb(79,112,59);stroke-width:1.5px;"/>
        <path d="M13,13.75C10.75,13.75 8.5,12.25 8.5,9.25C11.5,9.25 13,10.75 13,13.75Z" style="fill:none;fill-rule:nonzero;stroke:rgb(79,112,59);stroke-width:1.5px;"/>
        <path d="M13,13.75C15.25,13.75 17.5,12.25 17.5,9.25C14.5,9.25 13,10.75 13,13.75Z" style="fill:none;fill-rule:nonzero;stroke:rgb(79,112,59);stroke-width:1.5px;"/>
        <path d="M7.75,19L18.25,19" style="fill:none;fill-rule:nonzero;stroke:rgb(79,112,59);stroke-width:1.5px;"/>
    </g>
</svg>
